<?xml version="1.0" standalone="no"?>
<!DOCTYPE svg PUBLIC "-//W3C//DTD SVG 20010904//EN"
 "http://www.w3.org/TR/2001/REC-SVG-20010904/DTD/svg10.dtd">
<svg version="1.0" xmlns="http://www.w3.org/2000/svg"
 width="768.000000pt" height="768.000000pt" viewBox="0 0 768.000000 768.000000"
 preserveAspectRatio="xMidYMid meet">
<metadata>
Created by potrace 1.11, written by Peter Selinger 2001-2013
</metadata>
<g transform="translate(0.000000,768.000000) scale(0.100000,-0.100000)"
fill="#000000" stroke="none">
<path d="M1850 7673 c-94 -11 -288 -56 -395 -93 -403 -139 -740 -399 -975
-753 -164 -246 -262 -503 -306 -799 -25 -171 -15 -490 20 -653 81 -379 244
-686 511 -962 l93 -96 6 -176 c59 -1536 406 -3048 860 -3741 121 -184 240
-300 373 -363 65 -31 73 -32 193 -32 111 0 130 3 172 23 151 74 269 260 376
593 28 85 109 391 181 680 129 518 183 709 256 904 122 327 272 541 440 625
68 34 74 35 185 35 111 0 117 -1 185 -35 170 -85 316 -294 444 -635 70 -189
128 -394 257 -913 69 -277 148 -574 176 -660 107 -334 225 -519 376 -594 68
-33 242 -39 325 -10 360 127 695 752 951 1777 178 715 283 1458 317 2253 l12
274 55 51 c223 211 414 527 508 839 58 195 69 284 69 553 -1 233 -2 259 -27
375 -165 769 -739 1344 -1503 1506 -97 21 -158 27 -321 31 -316 8 -462 -14
-979 -152 -335 -90 -524 -132 -631 -142 -36 -3 -63 -9 -62 -13 2 -4 86 -63
188 -131 307 -206 539 -389 744 -589 149 -145 241 -255 255 -305 20 -75 -33
-162 -113 -185 -69 -19 -111 5 -206 115 -371 431 -1175 974 -1812 1223 -262
103 -401 138 -645 167 -117 14 -458 19 -553 8z"/>
</g>
</svg>
